# xmcd
#
# Track frame offsets: 
#        150
#        9529
#        20924
#        29363
#        40190
#        49189
#        57633
#        68169
#        79240
#        87133
#        97337
#        105940
#        116390
#        125006
#        133110
#        142968
#        152963
#        164327
#        174119
#        183024
#        192427
#        200172
#        211752
#        224112
#
# Disc length: 3098 seconds
#
# Revision: 0
# Processed by: cddbd v1.5.2PL0 Copyright (c) Steve Scherf et al.
# Submitted via: ExactAudioCopyFreeDBPlugin 1.0
#
DISCID=5f0c1818
DTITLE=Cash, Johnny - The Complete Releases 1957-1962 [CD3]
DYEAR=1959
DGENRE=Country
TTITLE0=It Was Jesus
TTITLE1=I Saw A Man
TTITLE2=Are All The Children In
TTITLE3=The Old Account
TTITLE4=Lead Me Gently Home
TTITLE5=Swing Low Sweet Chariot
TTITLE6=Snow In His Hair
TTITLE7=Lead Me Father
TTITLE8=I Call Him
TTITLE9=These Things Shall Pass
TTITLE10=He'll Be A Friend
TTITLE11=God Will
TTITLE12=Drink To Me
TTITLE13=Five Feet High And Rising
TTITLE14=The Man On The Hill
TTITLE15=Hank And Joe And Me
TTITLE16=Clementine
TTITLE17=The Great Speckled Bird
TTITLE18=I Want To Go Home
TTITLE19=The Caretaker
TTITLE20=Old Apache Squaw
TTITLE21=Don't Step On Mothers Roses
TTITLE22=My Grandfather's Clock
TTITLE23=It Could Be You Instead Of Him
EXTD=
EXTT0=
EXTT1=
EXTT2=
EXTT3=
EXTT4=
EXTT5=
EXTT6=
EXTT7=
EXTT8=
EXTT9=
EXTT10=
EXTT11=
EXTT12=
EXTT13=
EXTT14=
EXTT15=
EXTT16=
EXTT17=
EXTT18=
EXTT19=
EXTT20=
EXTT21=
EXTT22=
EXTT23=
PLAYORDER=
